<?xml version="1.0" encoding="iso-8859-1"?>
<!-- Generator: Adobe Illustrator 19.0.0, SVG Export Plug-In . SVG Version: 6.00 Build 0)  -->
<svg version="1.1" id="Capa_1" xmlns="http://www.w3.org/2000/svg" xmlns:xlink="http://www.w3.org/1999/xlink" x="0px" y="0px"
	 viewBox="0 0 457.907 457.907" style="enable-background:new 0 0 457.907 457.907;" xml:space="preserve">
<g>
	<path style="fill:#FF4979;" d="M192.356,259.563c1.108-46.736,39.331-84.035,86.08-84h2.04c19.277,0.431,37.842,7.366,52.68,19.68
		c23.447-17.353,54.088-21.644,81.4-11.4c12.889-65.279-29.582-128.647-94.861-141.536c-39.422-7.784-80.129,4.599-108.539,33.016
		l-4,4l-4-4C154.705,29.685,78.43,31.964,32.791,80.415c-43.662,46.353-43.73,118.673-0.155,165.108l170.8,170.8
		c1.232,0.892,2.684,1.432,4.2,1.56c1.187-0.004,2.323-0.479,3.16-1.32l49.24-49.28l-44-46.24
		C200.245,304.537,191.718,282.397,192.356,259.563L192.356,259.563z"/>
	<path style="fill:#FF4979;" d="M437.636,213.763c-27.991-29.414-74.527-30.567-103.941-2.576c-0.02,0.019-0.039,0.037-0.059,0.056
		l-1.08,1.04l-0.92-1.24c-27.968-29.393-74.467-30.548-103.86-2.58s-30.548,74.467-2.58,103.86l99,104c0.543,0.56,1.238,0.95,2,1.12
		c0.553,0.251,1.152,0.387,1.76,0.4c1.148,0.001,2.252-0.444,3.08-1.24l104-99c29.412-27.929,30.615-74.413,2.687-103.825
		c-0.055-0.058-0.111-0.117-0.167-0.175L437.636,213.763z"/>
</g>
<g>
</g>
<g>
</g>
<g>
</g>
<g>
</g>
<g>
</g>
<g>
</g>
<g>
</g>
<g>
</g>
<g>
</g>
<g>
</g>
<g>
</g>
<g>
</g>
<g>
</g>
<g>
</g>
<g>
</g>
</svg>
