<?xml version="1.0" encoding="iso-8859-1"?>
<!-- Generator: Adobe Illustrator 19.0.0, SVG Export Plug-In . SVG Version: 6.00 Build 0)  -->
<svg version="1.1" id="Capa_1" xmlns="http://www.w3.org/2000/svg" xmlns:xlink="http://www.w3.org/1999/xlink" x="0px" y="0px"
	 viewBox="0 0 436.169 436.169" style="enable-background:new 0 0 436.169 436.169;" xml:space="preserve">
<g>
	<path style="fill:#FF4979;" d="M186.524,253.229c2.004-6.21,7.378-10.73,13.84-11.64l70.16-10.24l31.36-63.56
		c4.372-8.483,14.793-11.816,23.276-7.444c3.195,1.647,5.797,4.249,7.444,7.444l31.4,63.56l24,3.52
		c45.425-48.622,42.834-124.861-5.788-170.286c-46.812-43.734-119.663-43.187-165.812,1.246l-4,4l-4-4
		c-45.548-48.537-121.818-50.96-170.355-5.412s-50.96,121.818-5.412,170.355c1.695,1.806,3.444,3.559,5.247,5.257l170.8,170.8
		c0.72,0.722,1.666,1.174,2.68,1.28c0.486,0.183,1.001,0.278,1.52,0.28c1.187-0.004,2.323-0.479,3.16-1.32l13.4-13.4
		c-0.117-1.157-0.117-2.323,0-3.48l12-69.88l-50.6-49.52C186.161,266.245,184.483,259.426,186.524,253.229L186.524,253.229z"/>
	<path style="fill:#FF4979;" d="M435.924,257.149c-0.527-1.614-1.921-2.791-3.6-3.04l-76.76-11.16l-34.32-69.56
		c-1.299-2.209-4.142-2.947-6.352-1.648c-0.681,0.4-1.248,0.968-1.648,1.648l-34.32,69.56l-76.76,11.16
		c-2.445,0.377-4.122,2.666-3.744,5.111c0.146,0.943,0.589,1.815,1.264,2.489l55.68,54.16l-13.12,76.44
		c-0.41,2.44,1.235,4.751,3.675,5.161c0.958,0.161,1.942,0.006,2.805-0.441l68.64-36l68.64,36c2.197,1.139,4.9,0.281,6.039-1.915
		c0.447-0.862,0.602-1.847,0.441-2.805l-13.12-76.44l55.52-54.12C436.075,260.537,436.478,258.755,435.924,257.149L435.924,257.149z
		"/>
</g>
<g>
</g>
<g>
</g>
<g>
</g>
<g>
</g>
<g>
</g>
<g>
</g>
<g>
</g>
<g>
</g>
<g>
</g>
<g>
</g>
<g>
</g>
<g>
</g>
<g>
</g>
<g>
</g>
<g>
</g>
</svg>
