<?xml version="1.0" encoding="iso-8859-1"?>
<!-- Generator: Adobe Illustrator 19.0.0, SVG Export Plug-In . SVG Version: 6.00 Build 0)  -->
<svg version="1.1" id="Capa_1" xmlns="http://www.w3.org/2000/svg" xmlns:xlink="http://www.w3.org/1999/xlink" x="0px" y="0px"
	 viewBox="0 0 422.52 422.52" style="enable-background:new 0 0 422.52 422.52;" xml:space="preserve">
<path style="fill:#FF4979;" d="M387.12,59.224c-47.2-47.2-123.2-47.2-170.4,0l-4,4l-4-4c-45.2-48.8-121.6-51.6-170.4-6
	s-51.2,121.6-6,170.4l6,6l170.8,170.8c0.4,0.4,0.8,0.8,1.2,0.8h0.4c0.4,0,0.8,0,0.8,0.4c1.6,0.4,3.6,0,4.8-1.2l170.8-170.8
	C434.32,182.424,434.32,106.024,387.12,59.224L387.12,59.224z M379.12,224.824l-162.4,162.4l0.4-99.6c0-1.2-0.4-2-0.8-2.8
	l-31.2-38.8l47.2-64c1.2-2,1.2-4.4-0.8-6l-54.8-45.2l39.6-55.6l6.8-6.8c41.6-44.8,111.6-46.8,156.4-5.2s46.8,111.6,5.2,156.4
	C382.72,221.224,380.72,223.224,379.12,224.824L379.12,224.824z"/>
<g>
</g>
<g>
</g>
<g>
</g>
<g>
</g>
<g>
</g>
<g>
</g>
<g>
</g>
<g>
</g>
<g>
</g>
<g>
</g>
<g>
</g>
<g>
</g>
<g>
</g>
<g>
</g>
<g>
</g>
</svg>
